<svg xmlns="http://www.w3.org/2000/svg" width="76.718" height="24.829" viewBox="0 0 76.718 24.829">
  <g id="Visa_Inc._logo" transform="translate(-81.166 -105.048)">
    <path id="polygon9" d="M439.722,134.762h-6.215l3.887-24.035h6.214Z" transform="translate(-325.312 -5.244)" fill="#fff"/>
    <path id="path11" d="M583.821,106.071a15.316,15.316,0,0,0-5.574-1.023c-6.137,0-10.459,3.273-10.486,7.952-.051,3.452,3.094,5.369,5.447,6.521,2.4,1.176,3.222,1.944,3.222,2.992-.024,1.61-1.943,2.352-3.732,2.352a12.368,12.368,0,0,1-5.831-1.278l-.818-.384-.87,5.4a18.915,18.915,0,0,0,6.931,1.279c6.521,0,10.766-3.222,10.816-8.208.025-2.736-1.636-4.833-5.217-6.546-2.174-1.1-3.5-1.841-3.5-2.966.026-1.023,1.126-2.071,3.58-2.071a10.559,10.559,0,0,1,4.629.92l.562.255.845-5.19Z" transform="translate(-446.882 0)" fill="#fff"/>
    <path id="path13" d="M800.137,126.247c.512-1.381,2.481-6.725,2.481-6.725-.026.051.511-1.406.818-2.3l.434,2.071s1.177,5.753,1.432,6.955Zm7.671-15.52H803a3.066,3.066,0,0,0-3.248,1.994l-9.231,22.04h6.521s1.074-2.966,1.3-3.605h7.979c.179.844.742,3.605.742,3.605h5.754l-5.014-24.035Z" transform="translate(-654.938 -5.244)" fill="#fff"/>
    <path id="path15" d="M181.179,110.727l-6.086,16.39-.665-3.324a18.4,18.4,0,0,0-8.592-10.075l5.575,21.019h6.572l9.768-24.01h-6.572Z" transform="translate(-78.174 -5.244)" fill="#fff"/>
    <path id="path17" d="M91.267,110.727h-10l-.1.486c7.8,1.995,12.965,6.8,15.088,12.581L94.08,112.747c-.358-1.535-1.458-1.97-2.813-2.02Z" transform="translate(0 -5.244)" fill="#fff"/>
  </g>
</svg>
